<svg width="40" height="38" fill="none" xmlns="http://www.w3.org/2000/svg"><g clip-path="url(#clip0)"><path d="M30.21-.074H9.24c-1.829.002-3.31 1.43-3.312 3.192v31.616c.002 1.762 1.483 3.19 3.311 3.192h20.97c1.828-.002 3.31-1.43 3.311-3.192V3.118c-.002-1.762-1.483-3.19-3.31-3.192zm1.996 34.808c0 1.063-.894 1.924-1.997 1.925H9.24c-1.102-.001-1.996-.862-1.997-1.925V3.118c0-1.063.895-1.924 1.997-1.926h20.97c1.103.002 1.997.863 1.997 1.926v31.616z" fill="url(#paint0_linear)"/><path d="M14.1 17.419c.22.143.507.146.73.005l1.78-1.128 1.17 1.716c.2.292.607.372.91.18a.633.633 0 00.282-.4l.863-4.03.863 4.03c.073.342.42.563.776.492a.66.66 0 00.416-.272l1.172-1.716 1.78 1.128c.302.192.71.111.91-.18a.615.615 0 00.094-.477L24.37 9.885c1.357-2.474.377-5.54-2.189-6.848-2.566-1.308-5.746-.363-7.103 2.11a4.91 4.91 0 00.16 5.01l-1.414 6.61a.624.624 0 00.274.652zm9.134-2.53a.672.672 0 00-.91.181l-.657.968-.765-3.577a5.305 5.305 0 002.416-1.246l.923 4.31-1.007-.636zm-3.51-11.163c2.177 0 3.942 1.7 3.942 3.8 0 2.098-1.765 3.8-3.942 3.8-2.177 0-3.941-1.702-3.941-3.8.002-2.098 1.765-3.798 3.941-3.8zm-3.403 7.654c.698.574 1.54.962 2.442 1.124l-.757 3.534-.66-.968a.672.672 0 00-.907-.181l-1.003.633.885-4.143z" fill="url(#paint1_linear)"/><path d="M11.184 20.826h17.08v1.267h-17.08v-1.267z" fill="url(#paint2_linear)"/><path d="M11.184 25.259h17.08v1.267h-17.08v-1.267z" fill="url(#paint3_linear)"/><path d="M11.184 30.326h17.08v1.266h-17.08v-1.266z" fill="url(#paint4_linear)"/></g><defs><linearGradient id="paint0_linear" x1="5.928" y1="-.074" x2="34.749" y2=".882" gradientUnits="userSpaceOnUse"><stop stop-color="#EC441E"/><stop offset="1" stop-color="#E41414"/></linearGradient><linearGradient id="paint1_linear" x1="13.812" y1="2.449" x2="26.395" y2="2.886" gradientUnits="userSpaceOnUse"><stop stop-color="#EC441E"/><stop offset="1" stop-color="#E41414"/></linearGradient><linearGradient id="paint2_linear" x1="11.184" y1="20.826" x2="24.133" y2="28.801" gradientUnits="userSpaceOnUse"><stop stop-color="#EC441E"/><stop offset="1" stop-color="#E41414"/></linearGradient><linearGradient id="paint3_linear" x1="11.184" y1="25.259" x2="24.133" y2="33.234" gradientUnits="userSpaceOnUse"><stop stop-color="#EC441E"/><stop offset="1" stop-color="#E41414"/></linearGradient><linearGradient id="paint4_linear" x1="11.184" y1="30.326" x2="24.133" y2="38.301" gradientUnits="userSpaceOnUse"><stop stop-color="#EC441E"/><stop offset="1" stop-color="#E41414"/></linearGradient><clipPath id="clip0"><path fill="#fff" d="M0 0h39.418v38H0z"/></clipPath></defs></svg>