<svg width="39" height="38" fill="none" xmlns="http://www.w3.org/2000/svg"><path d="M35.764 23.527a3.28 3.28 0 00.875-2.226c0-1.842-1.538-3.34-3.428-3.34h-6.653c.659-1.948.94-4.533.94-5.641v-1.113c0-2.455-2.05-4.453-4.57-4.453h-1.143c-.524 0-.98.347-1.108.843l-.622 2.426c-.873 3.398-3.642 7.147-6.507 7.828a3.432 3.432 0 00-3.189-2.117H3.504c-.63 0-1.143.5-1.143 1.114v20.039c0 .614.512 1.113 1.143 1.113h6.855a3.44 3.44 0 003.095-1.904l3.925 1.275c1.284.417 2.621.629 3.975.629h9.572c1.89 0 3.427-1.498 3.427-3.34 0-.434-.085-.85-.24-1.23 1.453-.387 2.526-1.685 2.526-3.223a3.28 3.28 0 00-.876-2.227 3.28 3.28 0 00.876-2.226 3.28 3.28 0 00-.876-2.227zM11.502 34.66c0 .614-.513 1.113-1.143 1.113H4.646V17.961h5.713c.63 0 1.143.5 1.143 1.113V34.66zm19.424-10.02h2.285c.63 0 1.142.5 1.142 1.114 0 .614-.512 1.113-1.142 1.113h-2.285c-.63 0-1.143.499-1.143 1.113 0 .615.512 1.114 1.143 1.114h2.285c.63 0 1.142.5 1.142 1.113 0 .614-.512 1.113-1.142 1.113h-2.285c-.63 0-1.143.5-1.143 1.114 0 .614.512 1.113 1.143 1.113.63 0 1.142.5 1.142 1.113 0 .614-.512 1.113-1.142 1.113h-9.572c-1.107 0-2.202-.173-3.252-.514l-4.315-1.401V20.082c1.792-.332 3.547-1.438 5.13-3.248 1.547-1.768 2.8-4.111 3.354-6.27l.406-1.584h.25c1.26 0 2.286 1 2.286 2.227v1.113c0 1.494-.48 4.361-1.094 5.64h-2.334c-.63 0-1.142.5-1.142 1.114 0 .615.511 1.113 1.142 1.113h11.426c.63 0 1.142.5 1.142 1.114 0 .614-.512 1.113-1.142 1.113h-2.285c-.63 0-1.143.499-1.143 1.113 0 .615.512 1.114 1.143 1.114z" fill="url(#paint0_linear)"/><path d="M8.074 33.547c.631 0 1.143-.499 1.143-1.113 0-.615-.512-1.114-1.143-1.114-.63 0-1.142.499-1.142 1.114 0 .614.511 1.113 1.142 1.113z" fill="url(#paint1_linear)"/><path d="M24.07 0c-.63 0-1.142.498-1.142 1.113v2.301c0 .615.511 1.113 1.142 1.113.631 0 1.143-.498 1.143-1.113v-2.3C25.213.497 24.7 0 24.07 0z" fill="url(#paint2_linear)"/><path d="M19.223 4.91l-1.616-1.575a1.164 1.164 0 00-1.616 0 1.093 1.093 0 000 1.575l1.616 1.574c.446.435 1.17.435 1.616 0a1.093 1.093 0 000-1.574z" fill="url(#paint3_linear)"/><path d="M32.15 3.335a1.164 1.164 0 00-1.616 0L28.918 4.91a1.093 1.093 0 000 1.575c.446.435 1.17.435 1.616 0L32.15 4.91a1.093 1.093 0 000-1.575z" fill="url(#paint4_linear)"/><defs><linearGradient id="paint0_linear" x1="2.361" y1="6.754" x2="38.114" y2="8.545" gradientUnits="userSpaceOnUse"><stop stop-color="#EC441E"/><stop offset="1" stop-color="#E41414"/></linearGradient><linearGradient id="paint1_linear" x1="6.932" y1="31.32" x2="9.316" y2="31.432" gradientUnits="userSpaceOnUse"><stop stop-color="#EC441E"/><stop offset="1" stop-color="#E41414"/></linearGradient><linearGradient id="paint2_linear" x1="22.928" y1="0" x2="25.316" y2=".055" gradientUnits="userSpaceOnUse"><stop stop-color="#EC441E"/><stop offset="1" stop-color="#E41414"/></linearGradient><linearGradient id="paint3_linear" x1="15.656" y1="3.009" x2="19.727" y2="3.2" gradientUnits="userSpaceOnUse"><stop stop-color="#EC441E"/><stop offset="1" stop-color="#E41414"/></linearGradient><linearGradient id="paint4_linear" x1="28.583" y1="3.009" x2="32.654" y2="3.2" gradientUnits="userSpaceOnUse"><stop stop-color="#EC441E"/><stop offset="1" stop-color="#E41414"/></linearGradient></defs></svg>