<svg width="32" height="38" fill="none" xmlns="http://www.w3.org/2000/svg"><path d="M31.592 36.923l-3.13-3.745c.997-1.234 1.602-2.873 1.602-4.678 0-1.5-.418-2.885-1.131-4.02V3.168c0-1.077-.736-1.9-1.698-1.9H19.88C19.88.57 19.37 0 18.748 0h-7.921c-.623 0-1.132.57-1.132 1.267H2.34c-.962 0-1.698.823-1.698 1.9V36.1c0 1.077.736 1.9 1.698 1.9h23.764c.339 0 .565-.253.565-.633v-2.654c.343-.195.668-.425.97-.685l3.16 3.782a.49.49 0 00.397.19.58.58 0 00.396-.19.664.664 0 000-.887zM23.84 34.2c-2.829 0-5.092-2.533-5.092-5.7 0-2.47 1.377-4.553 3.324-5.352l.023-.009.028-.01a4.57 4.57 0 011.151-.266.97.97 0 01.223-.049 4.71 4.71 0 01.594-.007h.02c1.203.07 2.29.6 3.127 1.435.246.25.473.53.676.838a.364.364 0 00.055.07c.607.938.964 2.094.964 3.35 0 3.167-2.264 5.7-5.093 5.7zM10.827 6.333h7.921c.622 0 1.132-.57 1.132-1.266h5.658v16.72a8.85 8.85 0 00-.128-.032 5.465 5.465 0 00-.474-.115l-.026-.005a5.485 5.485 0 00-.238-.04l-.017-.003a5.74 5.74 0 00-.247-.03l-.036-.004a5.752 5.752 0 00-.243-.017l-.037-.002a5.655 5.655 0 00-2.027.28c-2.564.787-4.39 3.357-4.446 6.471l-.001.07-.002.077v.063l.003.21.001.029c.068 2.264 1.088 4.245 2.63 5.461H4.037V5.067h5.658c0 .696.51 1.266 1.132 1.266zm16.408-3.8c.34 0 .566.254.566.634v19.948a5.841 5.841 0 00-1.131-.833V5.067c0-.697-.51-1.267-1.132-1.267H19.88V2.533h7.355zM10.827 1.267h7.921v3.8h-7.921v-3.8zm14.71 35.466H2.34c-.34 0-.566-.253-.566-.633V3.167c0-.38.226-.634.566-.634h7.355V3.8H4.037c-.622 0-1.131.57-1.131 1.267V34.2c0 .697.509 1.267 1.131 1.267h21.501v1.266z" fill="url(#paint0_linear)"/><path d="M7.206 13.237c-.849 0-1.471.76-1.471 1.646v2.47c0 .95.622 1.647 1.47 1.647h.865c.253 1.09 1.141 1.9 2.191 1.9 1.05 0 1.938-.81 2.191-1.9h4.67c.254 1.09 1.142 1.9 2.192 1.9 1.05 0 1.938-.81 2.191-1.9h.864c.849 0 1.471-.697 1.528-1.647v-2.47c0-.95-.679-1.646-1.471-1.646H21.22l-2.19-3.42c-.34-.57-.905-.887-1.528-.887h-2.448a.569.569 0 00-.268-.063.57.57 0 00-.267.063h-2.448c-.623 0-1.188.317-1.528.887l-2.19 3.42H7.206zm3.055 6.396c-.622 0-1.132-.57-1.132-1.266 0-.697.51-1.267 1.132-1.267.623 0 1.132.57 1.132 1.267 0 .696-.51 1.266-1.132 1.266zm9.053 0c-.622 0-1.132-.57-1.132-1.266 0-.697.51-1.267 1.132-1.267.622 0 1.132.57 1.132 1.267 0 .696-.51 1.266-1.132 1.266zm3.451-4.75v2.47c0 .19-.17.38-.34.38h-.904c-.283-1.076-1.019-1.9-2.094-1.9l-.061.002-.052-.002c-1.05 0-1.938.81-2.191 1.9h-4.599c-.283-1.076-1.131-1.9-2.206-1.9l-.031.001h-.026c-1.05 0-1.938.81-2.19 1.9h-.865c-.17 0-.34-.19-.34-.38v-2.47c0-.19.17-.38.34-.38h1.103c.075.04.16.063.255.063H21.01c.095 0 .18-.024.255-.064h1.16c.17 0 .34.19.34.38zM18.07 10.45l1.77 2.787h-4.486v-3.104h2.094c.283 0 .509.127.622.317zm-6.676 0c.17-.19.396-.317.622-.317h2.207v3.104H9.678l1.715-2.787z" fill="url(#paint1_linear)"/><path d="M14.787 24.067H6.3c-.339 0-.565.253-.565.633s.226.633.565.633h8.488c.339 0 .565-.253.565-.633s-.226-.633-.566-.633z" fill="url(#paint2_linear)"/><path d="M14.787 27.233H6.3c-.339 0-.565.253-.565.633s.226.634.565.634h8.488c.339 0 .565-.253.565-.634 0-.38-.226-.633-.566-.633z" fill="url(#paint3_linear)"/><path d="M14.787 30.4H6.3c-.339 0-.565.253-.565.633s.226.633.565.633h8.488c.339 0 .565-.253.565-.633s-.226-.633-.566-.633z" fill="url(#paint4_linear)"/><defs><linearGradient id="paint0_linear" x1=".642" y1="0" x2="33.137" y2="1.215" gradientUnits="userSpaceOnUse"><stop stop-color="#EC441E"/><stop offset="1" stop-color="#E41414"/></linearGradient><linearGradient id="paint1_linear" x1="5.735" y1="8.867" x2="24.637" y2="10.17" gradientUnits="userSpaceOnUse"><stop stop-color="#EC441E"/><stop offset="1" stop-color="#E41414"/></linearGradient><linearGradient id="paint2_linear" x1="5.735" y1="24.067" x2="14.713" y2="27.18" gradientUnits="userSpaceOnUse"><stop stop-color="#EC441E"/><stop offset="1" stop-color="#E41414"/></linearGradient><linearGradient id="paint3_linear" x1="5.735" y1="27.233" x2="14.713" y2="30.347" gradientUnits="userSpaceOnUse"><stop stop-color="#EC441E"/><stop offset="1" stop-color="#E41414"/></linearGradient><linearGradient id="paint4_linear" x1="5.735" y1="30.4" x2="14.713" y2="33.514" gradientUnits="userSpaceOnUse"><stop stop-color="#EC441E"/><stop offset="1" stop-color="#E41414"/></linearGradient></defs></svg>