<svg width="24" height="32" fill="none" xmlns="http://www.w3.org/2000/svg"><path d="M20.332 17.88c-1.048 2.124-2.468 4.24-3.92 6.14A62.998 62.998 0 0112 29.16a62.959 62.959 0 01-4.412-5.14c-1.452-1.9-2.872-4.016-3.92-6.14C2.608 15.734 2 13.724 2 12a10 10 0 0120 0c0 1.724-.61 3.734-1.668 5.88zM12 32s12-11.372 12-20a12 12 0 00-24 0c0 8.628 12 20 12 20z" fill="url(#paint0_linear)"/><path d="M12 16a4 4 0 110-8 4 4 0 010 8zm0 2a6 6 0 100-12 6 6 0 000 12z" fill="url(#paint1_linear)"/><defs><linearGradient id="paint0_linear" x1="0" y1="0" x2="25.067" y2=".859" gradientUnits="userSpaceOnUse"><stop stop-color="#EC441E"/><stop offset="1" stop-color="#E41414"/></linearGradient><linearGradient id="paint1_linear" x1="6" y1="6" x2="18.522" y2="6.572" gradientUnits="userSpaceOnUse"><stop stop-color="#EC441E"/><stop offset="1" stop-color="#E41414"/></linearGradient></defs></svg>