<svg width="30" height="40" fill="none" xmlns="http://www.w3.org/2000/svg"><path d="M25.514 8.025a4.481 4.481 0 00-3.17 1.321 4.518 4.518 0 00-1.316 3.184v11.22a6.075 6.075 0 01-1.731 4.343A6.027 6.027 0 0115 29.9a6.006 6.006 0 01-4.296-1.807 6.056 6.056 0 01-1.732-4.342V12.53a4.517 4.517 0 00-1.314-3.186 4.477 4.477 0 00-6.344 0A4.514 4.514 0 000 12.53v12.41c0 1.977.388 3.936 1.142 5.764a15.068 15.068 0 003.251 4.886 14.997 14.997 0 004.867 3.265 14.949 14.949 0 0016.346-3.265 15.064 15.064 0 003.252-4.886A15.114 15.114 0 0030 24.939V12.53a4.52 4.52 0 00-1.315-3.184 4.482 4.482 0 00-3.171-1.32zm2.523 16.913c0 3.472-1.373 6.801-3.818 9.256A13.01 13.01 0 0115 38.028a13.01 13.01 0 01-9.219-3.834 13.117 13.117 0 01-3.818-9.256V12.53a2.539 2.539 0 01.746-1.777 2.518 2.518 0 013.554 0c.472.47.74 1.109.746 1.777v11.22a8.04 8.04 0 002.34 5.674A7.974 7.974 0 0015 31.774a7.97 7.97 0 005.65-2.35 8.04 8.04 0 002.34-5.673V12.53c0-.673.266-1.317.74-1.792a2.518 2.518 0 013.568 0c.473.475.74 1.12.74 1.791v12.408z" fill="url(#paint0_linear)"/><path d="M14.019 10.322v12.99a.979.979 0 101.963 0v-12.99a5.185 5.185 0 003.17-1.993 5.223 5.223 0 00-.663-6.975 5.175 5.175 0 00-6.978 0 5.223 5.223 0 00-.663 6.975 5.185 5.185 0 003.17 1.993zM15 1.972c.638 0 1.261.19 1.791.546A3.25 3.25 0 0117.28 7.5a3.22 3.22 0 01-3.514.702 3.227 3.227 0 01-1.447-1.192 3.248 3.248 0 01.402-4.087A3.221 3.221 0 0115 1.972z" fill="url(#paint1_linear)"/><defs><linearGradient id="paint0_linear" x1="0" y1="24.013" x2="30" y2="24.013" gradientUnits="userSpaceOnUse"><stop stop-color="#EC441E"/><stop offset="1" stop-color="#EE2A4A"/></linearGradient><linearGradient id="paint1_linear" x1="9.813" y1="12.149" x2="20.187" y2="12.149" gradientUnits="userSpaceOnUse"><stop stop-color="#EC441E"/><stop offset="1" stop-color="#EE2A4A"/></linearGradient></defs></svg>