<svg width="32" height="32" fill="none" xmlns="http://www.w3.org/2000/svg"><path d="M11.18 3.306l-1.146.345a5.6 5.6 0 00-3.928 4.567c-.476 3.308.587 7.177 3.148 11.614 2.556 4.426 5.368 7.277 8.464 8.525a5.6 5.6 0 005.944-1.128l.87-.823a3.2 3.2 0 00.393-4.196l-2.17-3.008a2.4 2.4 0 00-2.648-.89l-3.281 1.003-.085.016c-.362.053-1.195-.73-2.235-2.531-1.088-1.885-1.316-2.987-1.015-3.272l1.67-1.557a3.996 3.996 0 00.919-4.56l-1.056-2.353a3.2 3.2 0 00-3.843-1.752h-.002zm2.383 2.408l1.058 2.353a2.395 2.395 0 01-.55 2.736l-1.674 1.559c-1.072 1.012-.717 2.745.721 5.238 1.356 2.346 2.59 3.504 3.917 3.302l.199-.041 3.34-1.02a.8.8 0 01.884.297l2.17 3.008a1.6 1.6 0 01-.198 2.099l-.868.822a4 4 0 01-4.245.805c-2.717-1.094-5.285-3.698-7.677-7.84-2.397-4.152-3.366-7.683-2.95-10.587a4 4 0 012.806-3.263l1.147-.345a1.6 1.6 0 011.92.877z" fill="url(#paint0_linear)"/><defs><linearGradient id="paint0_linear" x1="5.995" y1="3.169" x2="26.398" y2="3.88" gradientUnits="userSpaceOnUse"><stop stop-color="#EC441E"/><stop offset="1" stop-color="#E41414"/></linearGradient></defs></svg>