<svg width="18" height="18" viewBox="0 0 18 18" fill="none" xmlns="http://www.w3.org/2000/svg">
<path fill-rule="evenodd" clip-rule="evenodd" d="M17.5643 2.06405C17.6712 1.95728 17.756 1.83051 17.8139 1.69096C17.8718 1.55142 17.9017 1.40183 17.9018 1.25075C17.9018 1.09967 17.8722 0.950053 17.8144 0.810437C17.7567 0.670821 17.6721 0.543943 17.5653 0.437047C17.4585 0.330151 17.3318 0.24533 17.1922 0.187428C17.0527 0.129527 16.9031 0.099677 16.752 0.0995841C16.6009 0.0994912 16.4513 0.129157 16.3117 0.186887C16.1721 0.244618 16.0452 0.329282 15.9383 0.436047L9.00029 7.37405L2.06429 0.436047C1.8484 0.22016 1.5556 0.098877 1.25029 0.098877C0.944982 0.098877 0.652177 0.22016 0.436291 0.436047C0.220405 0.651933 0.0991211 0.944738 0.0991211 1.25005C0.0991211 1.55536 0.220405 1.84816 0.436291 2.06405L7.37429 9.00005L0.436291 15.936C0.329395 16.0429 0.2446 16.1698 0.186749 16.3095C0.128897 16.4492 0.0991211 16.5989 0.0991211 16.75C0.0991211 16.9012 0.128897 17.0509 0.186749 17.1906C0.2446 17.3302 0.329395 17.4571 0.436291 17.564C0.652177 17.7799 0.944982 17.9012 1.25029 17.9012C1.40146 17.9012 1.55116 17.8714 1.69082 17.8136C1.83049 17.7557 1.95739 17.6709 2.06429 17.564L9.00029 10.626L15.9383 17.564C16.1542 17.7797 16.4469 17.9007 16.752 17.9005C17.0571 17.9003 17.3497 17.7789 17.5653 17.563C17.7809 17.3472 17.9019 17.0545 17.9018 16.7493C17.9016 16.4442 17.7802 16.1517 17.5643 15.936L10.6263 9.00005L17.5643 2.06405Z" fill="#6B6B6B"/>
</svg>
