<svg width="40" height="38" viewBox="0 0 40 38" fill="none" xmlns="http://www.w3.org/2000/svg">
<g clip-path="url(#clip0)">
<path d="M30.2092 -0.0742188H9.23911C7.41126 -0.0721893 5.93014 1.35565 5.92804 3.11777V34.7338C5.93014 36.496 7.41126 37.9238 9.23911 37.9258H30.2092C32.0371 37.9238 33.5182 36.496 33.5203 34.7338V3.11777C33.5182 1.35565 32.0371 -0.0721893 30.2092 -0.0742188ZM32.2064 34.7338C32.2055 35.7967 31.3117 36.658 30.2092 36.6592H9.23911C8.13662 36.658 7.24285 35.7967 7.24194 34.7338V3.11777C7.24285 2.05493 8.13662 1.19359 9.23911 1.19243H30.2092C31.3117 1.19359 32.2055 2.05493 32.2064 3.11777V34.7338Z" fill="url(#paint0_linear)"/>
<path d="M14.0993 17.4185C14.3191 17.5623 14.6072 17.5646 14.8292 17.424L16.6095 16.2957L17.7803 18.012C17.9799 18.3039 18.3874 18.3845 18.6906 18.1917C18.8355 18.0995 18.9369 17.9557 18.9721 17.7913L19.8352 13.7629L20.698 17.7913C20.771 18.134 21.1184 18.3547 21.4736 18.2842C21.6447 18.2503 21.7944 18.1523 21.8904 18.012L23.0617 16.2957L24.8415 17.424C25.1443 17.6165 25.5518 17.5353 25.7512 17.2434C25.8471 17.1028 25.8811 16.9315 25.8459 16.7668L24.3714 9.88501C25.7283 7.41144 24.7482 4.34556 22.1824 3.03746C19.6165 1.72935 16.4363 2.67419 15.0794 5.14776C14.2127 6.72781 14.2737 8.63112 15.2397 10.1567L13.8253 16.7668C13.7718 17.0173 13.8797 17.2744 14.0993 17.4185ZM23.2344 14.889C22.9312 14.6968 22.524 14.7777 22.3246 15.0702L21.6675 16.0376L20.9016 12.4606C21.8071 12.2594 22.641 11.8298 23.3177 11.2154L24.2415 15.5254L23.2344 14.889ZM19.7242 3.72572C21.9012 3.72572 23.6659 5.42695 23.6659 7.52567C23.6659 9.62438 21.9012 11.3259 19.7242 11.3259C17.5472 11.3259 15.7825 9.62438 15.7825 7.52567C15.7846 5.42782 17.5481 3.72775 19.7242 3.72572ZM16.3211 11.3795C17.0188 11.9542 17.8609 12.3418 18.7631 12.5038L18.0064 16.0376L17.346 15.0702C17.1469 14.7797 16.7418 14.6988 16.4393 14.889L15.4357 15.5222L16.3211 11.3795Z" fill="url(#paint1_linear)"/>
<path d="M11.1837 20.8259H28.2647V22.0926H11.1837V20.8259Z" fill="url(#paint2_linear)"/>
<path d="M11.1837 25.259H28.2647V26.5257H11.1837V25.259Z" fill="url(#paint3_linear)"/>
<path d="M11.1837 30.3257H28.2647V31.5923H11.1837V30.3257Z" fill="url(#paint4_linear)"/>
</g>
<defs>
<linearGradient id="paint0_linear" x1="5.92804" y1="-0.0742188" x2="34.7488" y2="0.88156" gradientUnits="userSpaceOnUse">
<stop stop-color="#EC441E"/>
<stop offset="1" stop-color="#E41414"/>
</linearGradient>
<linearGradient id="paint1_linear" x1="13.8118" y1="2.44873" x2="26.3945" y2="2.88559" gradientUnits="userSpaceOnUse">
<stop stop-color="#EC441E"/>
<stop offset="1" stop-color="#E41414"/>
</linearGradient>
<linearGradient id="paint2_linear" x1="11.1837" y1="20.8259" x2="24.1329" y2="28.8013" gradientUnits="userSpaceOnUse">
<stop stop-color="#EC441E"/>
<stop offset="1" stop-color="#E41414"/>
</linearGradient>
<linearGradient id="paint3_linear" x1="11.1837" y1="25.259" x2="24.1329" y2="33.2344" gradientUnits="userSpaceOnUse">
<stop stop-color="#EC441E"/>
<stop offset="1" stop-color="#E41414"/>
</linearGradient>
<linearGradient id="paint4_linear" x1="11.1837" y1="30.3257" x2="24.1329" y2="38.301" gradientUnits="userSpaceOnUse">
<stop stop-color="#EC441E"/>
<stop offset="1" stop-color="#E41414"/>
</linearGradient>
<clipPath id="clip0">
<rect width="39.4177" height="38" fill="white"/>
</clipPath>
</defs>
</svg>
