<svg width="39" height="38" viewBox="0 0 39 38" fill="none" xmlns="http://www.w3.org/2000/svg">
<path d="M35.7635 23.5273C36.3073 22.9358 36.6387 22.155 36.6387 21.3008C36.6387 19.4594 35.1008 17.9609 33.2109 17.9609H26.5581C27.217 16.0127 27.498 13.4277 27.498 12.3196V11.207C27.498 8.75187 25.4475 6.75391 22.9277 6.75391H21.7852C21.2611 6.75391 20.8041 7.10125 20.6769 7.59703L20.0545 10.0232C19.1824 13.421 16.4135 17.1698 13.5479 17.8511C13.046 16.6131 11.8066 15.7344 10.3594 15.7344H3.50391C2.8732 15.7344 2.36133 16.2331 2.36133 16.8477V36.8867C2.36133 37.5012 2.8732 38 3.50391 38H10.3594C11.7221 38 12.9012 37.2214 13.4535 36.0963L17.3794 37.3714C18.6629 37.7885 20.0004 38 21.354 38H30.9258C32.8156 38 34.3535 36.5015 34.3535 34.6602C34.3535 34.226 34.2682 33.8104 34.1128 33.4296C35.5662 33.0429 36.6387 31.7448 36.6387 30.207C36.6387 29.3528 36.3073 28.572 35.7635 27.9805C36.3073 27.3889 36.6387 26.6082 36.6387 25.7539C36.6387 24.8996 36.3073 24.1189 35.7635 23.5273ZM11.502 34.6602C11.502 35.2739 10.9893 35.7734 10.3594 35.7734H4.64648V17.9609H10.3594C10.9893 17.9609 11.502 18.4604 11.502 19.0742V34.6602ZM30.9258 24.6406H33.2109C33.8409 24.6406 34.3535 25.1401 34.3535 25.7539C34.3535 26.3677 33.8409 26.8672 33.2109 26.8672H30.9258C30.2951 26.8672 29.7832 27.3659 29.7832 27.9805C29.7832 28.595 30.2951 29.0938 30.9258 29.0938H33.2109C33.8409 29.0938 34.3535 29.5932 34.3535 30.207C34.3535 30.8208 33.8409 31.3203 33.2109 31.3203H30.9258C30.2951 31.3203 29.7832 31.8191 29.7832 32.4336C29.7832 33.0481 30.2951 33.5469 30.9258 33.5469C31.5557 33.5469 32.0684 34.0464 32.0684 34.6602C32.0684 35.2739 31.5557 35.7734 30.9258 35.7734H21.354C20.2465 35.7734 19.1519 35.6005 18.1015 35.2591L13.7871 33.8579V20.0821C15.5794 19.7504 17.3337 18.6445 18.9173 16.8343C20.4636 15.0664 21.7174 12.7226 22.2711 10.5636L22.6771 8.98047H22.9277C24.1876 8.98047 25.2129 9.97945 25.2129 11.207V12.3196C25.2129 13.8143 24.733 16.6814 24.1191 17.9609H21.7852C21.1545 17.9609 20.6426 18.4597 20.6426 19.0742C20.6426 19.6888 21.1545 20.1875 21.7852 20.1875H33.2109C33.8409 20.1875 34.3535 20.687 34.3535 21.3008C34.3535 21.9146 33.8409 22.4141 33.2109 22.4141H30.9258C30.2951 22.4141 29.7832 22.9128 29.7832 23.5273C29.7832 24.1419 30.2951 24.6406 30.9258 24.6406Z" fill="url(#paint0_linear)"/>
<path d="M8.07422 33.5469C8.70525 33.5469 9.2168 33.0484 9.2168 32.4336C9.2168 31.8187 8.70525 31.3203 8.07422 31.3203C7.44319 31.3203 6.93164 31.8187 6.93164 32.4336C6.93164 33.0484 7.44319 33.5469 8.07422 33.5469Z" fill="url(#paint1_linear)"/>
<path d="M24.0703 0C23.4393 0 22.9277 0.498453 22.9277 1.11328V3.41406C22.9277 4.02889 23.4393 4.52734 24.0703 4.52734C24.7013 4.52734 25.2129 4.02889 25.2129 3.41406V1.11328C25.2129 0.498453 24.7013 0 24.0703 0Z" fill="url(#paint2_linear)"/>
<path d="M19.2227 4.90952L17.6069 3.33511C17.1608 2.90034 16.4373 2.90034 15.9911 3.33511C15.5448 3.76989 15.5448 4.47474 15.9911 4.90952L17.6069 6.48392C18.053 6.91862 18.7766 6.91869 19.2227 6.48392C19.6689 6.04915 19.6689 5.34429 19.2227 4.90952Z" fill="url(#paint3_linear)"/>
<path d="M32.1496 3.33511C31.7034 2.90034 30.98 2.90034 30.5337 3.33511L28.9179 4.90944C28.4717 5.34422 28.4717 6.04907 28.9179 6.48385C29.364 6.91862 30.0875 6.91869 30.5337 6.48392L32.1496 4.90952C32.5958 4.47474 32.5958 3.76989 32.1496 3.33511Z" fill="url(#paint4_linear)"/>
<defs>
<linearGradient id="paint0_linear" x1="2.36133" y1="6.75391" x2="38.1144" y2="8.54523" gradientUnits="userSpaceOnUse">
<stop stop-color="#EC441E"/>
<stop offset="1" stop-color="#E41414"/>
</linearGradient>
<linearGradient id="paint1_linear" x1="6.93164" y1="31.3203" x2="9.31593" y2="31.4321" gradientUnits="userSpaceOnUse">
<stop stop-color="#EC441E"/>
<stop offset="1" stop-color="#E41414"/>
</linearGradient>
<linearGradient id="paint2_linear" x1="22.9277" y1="0" x2="25.316" y2="0.0550556" gradientUnits="userSpaceOnUse">
<stop stop-color="#EC441E"/>
<stop offset="1" stop-color="#E41414"/>
</linearGradient>
<linearGradient id="paint3_linear" x1="15.6564" y1="3.00903" x2="19.7266" y2="3.19982" gradientUnits="userSpaceOnUse">
<stop stop-color="#EC441E"/>
<stop offset="1" stop-color="#E41414"/>
</linearGradient>
<linearGradient id="paint4_linear" x1="28.5832" y1="3.00903" x2="32.6535" y2="3.19982" gradientUnits="userSpaceOnUse">
<stop stop-color="#EC441E"/>
<stop offset="1" stop-color="#E41414"/>
</linearGradient>
</defs>
</svg>
