<svg width="32" height="38" viewBox="0 0 32 38" fill="none" xmlns="http://www.w3.org/2000/svg">
<path d="M31.5919 36.9233L28.462 33.1782C29.4589 31.944 30.0642 30.305 30.0642 28.5C30.0642 26.9999 29.646 25.6146 28.9326 24.4808V3.16669C28.9326 2.09 28.1971 1.26669 27.2352 1.26669H19.8797C19.8797 0.57 19.3705 0 18.7481 0H10.8268C10.2044 0 9.69521 0.57 9.69521 1.26669H2.33979C1.3779 1.26669 0.64238 2.09 0.64238 3.16669V36.1C0.64238 37.1767 1.3779 38 2.33979 38H26.1035C26.443 38 26.6693 37.7467 26.6693 37.3667V34.7134C27.0124 34.5182 27.3367 34.2884 27.6391 34.0283L30.7997 37.8101C30.9128 37.9368 31.026 38.0001 31.1957 38.0001C31.3089 38.0001 31.4786 37.9368 31.5917 37.8101C31.8182 37.5567 31.8182 37.1767 31.5919 36.9233ZM23.8404 34.2C23.8404 34.2 23.8403 34.2 23.8404 34.2C21.0113 34.2 18.7481 31.6667 18.7481 28.5C18.7481 26.0305 20.1245 23.9465 22.0723 23.1484C22.0799 23.1455 22.0872 23.1421 22.0949 23.1392C22.1041 23.1355 22.1136 23.1324 22.1228 23.1286C22.4876 22.993 22.8729 22.9023 23.2745 22.8632C23.342 22.8381 23.4184 22.8232 23.4967 22.814C23.6104 22.8057 23.7247 22.7999 23.8403 22.7999C23.9244 22.7999 24.008 22.8025 24.091 22.8069C24.0975 22.8073 24.1041 22.8075 24.1106 22.8078C25.3139 22.877 26.4014 23.4063 27.2381 24.2424C27.4841 24.4921 27.7106 24.7717 27.9141 25.0799C27.9295 25.1057 27.9482 25.1289 27.9693 25.1501C28.5755 26.0884 28.9326 27.2439 28.9326 28.5C28.9326 31.6666 26.6694 34.2 23.8404 34.2ZM10.8268 6.33331H18.7481C19.3705 6.33331 19.8797 5.76331 19.8797 5.06662H25.5378V21.7866C25.4953 21.7756 25.4527 21.7649 25.4099 21.7545C25.3493 21.737 25.2884 21.7207 25.2272 21.7053C25.2032 21.6993 25.179 21.6935 25.1549 21.6878C25.0824 21.6705 25.0096 21.6542 24.9361 21.6398C24.9275 21.6381 24.9189 21.6367 24.9102 21.6351C24.8315 21.6199 24.7522 21.6065 24.6724 21.5947C24.6665 21.5938 24.6607 21.5928 24.6548 21.5919C24.573 21.5801 24.4906 21.5703 24.4078 21.562C24.396 21.5608 24.3842 21.5597 24.3723 21.5585C24.2916 21.551 24.2105 21.545 24.129 21.5409C24.1168 21.5403 24.1046 21.5399 24.0924 21.5393C24.0088 21.5356 23.9248 21.5332 23.8403 21.5332C23.2226 21.5332 22.627 21.6331 22.0649 21.8184C19.5007 22.6065 17.6754 25.1763 17.6195 28.29C17.6189 28.3135 17.6184 28.337 17.618 28.3606C17.6177 28.386 17.6164 28.4111 17.6164 28.4366V28.5C17.6164 28.5701 17.6176 28.6399 17.6194 28.7094C17.6197 28.7192 17.6201 28.7289 17.6204 28.7386C17.6877 31.0027 18.7079 32.9844 20.2497 34.2H4.0372V5.06669H9.69521C9.69528 5.76331 10.2045 6.33331 10.8268 6.33331ZM27.2352 2.53331C27.5746 2.53331 27.8009 2.78662 27.8009 3.16662V23.1153C27.7528 23.071 27.7039 23.0276 27.6545 22.985C27.349 22.7157 27.0189 22.4803 26.6694 22.2825V5.06669C26.6694 4.37 26.1602 3.8 25.5378 3.8H19.8797V2.53331H27.2352ZM10.8268 1.26669H18.7481V1.9V4.43331V5.06662H10.8268V4.43331V1.9V1.26669ZM25.5378 36.7333H2.33979C2.00031 36.7333 1.77401 36.48 1.77401 36.1V3.16669C1.77401 2.78669 2.00031 2.53338 2.33979 2.53338H9.69521V3.8H4.0372C3.41479 3.8 2.90557 4.37 2.90557 5.06669V34.2C2.90557 34.8967 3.41479 35.4667 4.0372 35.4667H23.8403H25.5378V36.7333Z" fill="url(#paint0_linear)"/>
<path d="M7.20576 13.2367C6.35706 13.2367 5.73465 13.9967 5.73465 14.8834V17.3534C5.73465 18.3034 6.35706 19.0001 7.20576 19.0001H8.06998C8.32287 20.0895 9.21149 20.9001 10.2611 20.9001C11.3106 20.9001 12.1993 20.0895 12.4522 19.0001H17.1229C17.3758 20.0895 18.2644 20.9001 19.314 20.9001C20.3635 20.9001 21.2522 20.0895 21.5051 19.0001H22.3693C23.218 19.0001 23.8404 18.3034 23.897 17.3534V14.8834C23.897 13.9334 23.218 13.2367 22.4259 13.2367H21.2207L19.0311 9.8167C18.6916 9.2467 18.1258 8.93001 17.5034 8.93001H15.0551C14.9776 8.88919 14.8877 8.8667 14.7875 8.8667C14.6874 8.8667 14.5976 8.88926 14.52 8.93001H12.0717C11.4493 8.93001 10.8835 9.2467 10.544 9.8167L8.35436 13.2367H7.20576ZM10.2611 19.6333C9.63869 19.6333 9.12947 19.0633 9.12947 18.3666C9.12947 17.6699 9.63869 17.0999 10.2611 17.0999C10.8835 17.0999 11.3927 17.6699 11.3927 18.3666C11.3927 19.0633 10.8835 19.6333 10.2611 19.6333ZM19.3139 19.6333C18.6915 19.6333 18.1823 19.0633 18.1823 18.3666C18.1823 17.6699 18.6915 17.0999 19.3139 17.0999C19.9363 17.0999 20.4456 17.67 20.4456 18.3667C20.4456 19.0634 19.9363 19.6333 19.3139 19.6333ZM22.7654 14.8833V17.3533C22.7654 17.5433 22.5956 17.7333 22.4259 17.7333H21.5206C21.2377 16.6566 20.5022 15.8333 19.4272 15.8333C19.4066 15.8333 19.3861 15.8342 19.3656 15.8348C19.3484 15.8344 19.3313 15.8333 19.314 15.8333C18.2644 15.8333 17.3758 16.6439 17.1229 17.7333H12.5244C12.2414 16.6566 11.3927 15.8333 10.3177 15.8333C10.3074 15.8333 10.2972 15.8339 10.287 15.8341C10.2783 15.834 10.2699 15.8333 10.2612 15.8333C9.21156 15.8333 8.32293 16.6439 8.07005 17.7333H7.20576C7.03602 17.7333 6.86628 17.5433 6.86628 17.3533V14.8833C6.86628 14.6933 7.03602 14.5033 7.20576 14.5033H8.30921C8.38427 14.5432 8.46867 14.5666 8.56369 14.5666H21.0113C21.1064 14.5666 21.1908 14.5432 21.2658 14.5033H22.4258C22.5956 14.5033 22.7654 14.6933 22.7654 14.8833ZM18.0692 10.45L19.8395 13.2367H15.3533V10.1334H17.4468C17.7297 10.1333 17.956 10.26 18.0692 10.45ZM11.3927 10.45C11.5625 10.26 11.7888 10.1333 12.0151 10.1333H14.2218V13.2366H9.67775L11.3927 10.45Z" fill="url(#paint1_linear)"/>
<path d="M14.7875 24.0667H6.30043C5.96095 24.0667 5.73465 24.32 5.73465 24.7C5.73465 25.08 5.96095 25.3333 6.30043 25.3333H14.7875C15.127 25.3333 15.3533 25.08 15.3533 24.7C15.3533 24.32 15.127 24.0667 14.7875 24.0667Z" fill="url(#paint2_linear)"/>
<path d="M14.7875 27.2332H6.30043C5.96095 27.2332 5.73465 27.4865 5.73465 27.8665C5.73465 28.2465 5.96095 28.4998 6.30043 28.4998H14.7875C15.127 28.4998 15.3533 28.2465 15.3533 27.8665C15.3533 27.4865 15.127 27.2332 14.7875 27.2332Z" fill="url(#paint3_linear)"/>
<path d="M14.7875 30.3999H6.30043C5.96095 30.3999 5.73465 30.6532 5.73465 31.0332C5.73465 31.4132 5.96095 31.6665 6.30043 31.6665H14.7875C15.127 31.6665 15.3533 31.4132 15.3533 31.0332C15.3533 30.6532 15.127 30.3999 14.7875 30.3999Z" fill="url(#paint4_linear)"/>
<defs>
<linearGradient id="paint0_linear" x1="0.64238" y1="0" x2="33.1374" y2="1.21537" gradientUnits="userSpaceOnUse">
<stop stop-color="#EC441E"/>
<stop offset="1" stop-color="#E41414"/>
</linearGradient>
<linearGradient id="paint1_linear" x1="5.73465" y1="8.8667" x2="24.6367" y2="10.1697" gradientUnits="userSpaceOnUse">
<stop stop-color="#EC441E"/>
<stop offset="1" stop-color="#E41414"/>
</linearGradient>
<linearGradient id="paint2_linear" x1="5.73465" y1="24.0667" x2="14.7126" y2="27.1805" gradientUnits="userSpaceOnUse">
<stop stop-color="#EC441E"/>
<stop offset="1" stop-color="#E41414"/>
</linearGradient>
<linearGradient id="paint3_linear" x1="5.73465" y1="27.2332" x2="14.7126" y2="30.347" gradientUnits="userSpaceOnUse">
<stop stop-color="#EC441E"/>
<stop offset="1" stop-color="#E41414"/>
</linearGradient>
<linearGradient id="paint4_linear" x1="5.73465" y1="30.3999" x2="14.7126" y2="33.5137" gradientUnits="userSpaceOnUse">
<stop stop-color="#EC441E"/>
<stop offset="1" stop-color="#E41414"/>
</linearGradient>
</defs>
</svg>
