<svg width="30" height="40" viewBox="0 0 30 40" fill="none" xmlns="http://www.w3.org/2000/svg">
<path d="M25.5139 8.02539C24.3245 8.02675 23.1841 8.5018 22.3433 9.34633C21.5022 10.1909 21.0291 11.3359 21.028 12.5302V23.7507C21.0406 24.5536 20.8941 25.351 20.5968 26.0964C20.2995 26.8419 19.8576 27.5204 19.2966 28.0927C18.7355 28.6651 18.0667 29.1195 17.3291 29.4297C16.5914 29.74 15.7997 29.8997 15 29.8997C14.2003 29.8997 13.4086 29.74 12.6709 29.4297C11.9333 29.1195 11.2645 28.6651 10.7035 28.0927C10.1425 27.5204 9.70048 26.8419 9.40321 26.0964C9.10594 25.351 8.95936 24.5536 8.97198 23.7507V12.5302C8.97198 11.3356 8.49935 10.1899 7.65806 9.34515C6.81678 8.50042 5.67574 8.02586 4.48599 8.02586C3.29624 8.02586 2.1552 8.50042 1.31391 9.34515C0.472626 10.1899 0 11.3356 0 12.5302V24.9387C-5.87054e-08 26.9165 0.387984 28.8751 1.1418 30.7025C1.89563 32.5298 3.00053 34.1901 4.3934 35.5888C5.78627 36.9873 7.43986 38.0967 9.25974 38.8536C11.0796 39.6104 13.0302 40 15 40C16.9698 40 18.9204 39.6104 20.7403 38.8536C22.5602 38.0967 24.2137 36.9873 25.6065 35.5888C26.9995 34.1901 28.1044 32.5298 28.8581 30.7025C29.612 28.8751 30 26.9165 30 24.9387V12.5302C29.9987 11.3359 29.5258 10.1909 28.6848 9.34633C27.8437 8.5018 26.7033 8.02675 25.5139 8.02539ZM28.0374 24.9378C28.0374 28.4097 26.6637 31.7393 24.2188 34.1942C21.7738 36.6491 18.4577 38.0284 15 38.0284C11.5423 38.0284 8.22618 36.6491 5.7812 34.1942C3.33622 31.7393 1.96264 28.4097 1.96264 24.9378V12.5302C1.96838 11.862 2.23675 11.2232 2.70936 10.7527C3.18195 10.2822 3.8205 10.0183 4.48599 10.0183C5.15148 10.0183 5.79003 10.2822 6.26262 10.7527C6.73521 11.2232 7.00359 11.862 7.00934 12.5302V23.7507C7.00934 25.8786 7.85121 27.9194 9.34974 29.4241C10.8483 30.9288 12.8807 31.774 15 31.774C17.1193 31.774 19.1518 30.9288 20.6503 29.4241C22.1487 27.9194 22.9907 25.8786 22.9907 23.7507V12.5302C22.9907 11.8582 23.2564 11.2138 23.7297 10.7386C24.203 10.2635 24.8447 9.99652 25.5139 9.99652C26.1833 9.99652 26.825 10.2635 27.2983 10.7386C27.7714 11.2138 28.0374 11.8582 28.0374 12.5302V24.9378Z" fill="url(#paint0_linear)"/>
<path d="M14.0187 10.322V23.3121C14.0187 23.5734 14.1221 23.8241 14.3061 24.0089C14.4901 24.1937 14.7397 24.2974 15 24.2974C15.2602 24.2974 15.5098 24.1937 15.6939 24.0089C15.8779 23.8241 15.9813 23.5734 15.9813 23.3121V10.322C17.2483 10.0768 18.3788 9.36634 19.1521 8.32923C19.9254 7.2921 20.286 6.00282 20.1633 4.7131C20.0407 3.42339 19.4438 2.22589 18.489 1.35439C17.5343 0.482894 16.2903 0 15 0C13.7097 0 12.4657 0.482894 11.511 1.35439C10.5562 2.22589 9.95926 3.42339 9.83666 4.7131C9.71403 6.00282 10.0746 7.2921 10.8479 8.32923C11.6212 9.36634 12.7517 10.0768 14.0187 10.322ZM15 1.97278C15.6377 1.97278 16.2611 2.16266 16.7914 2.51841C17.3216 2.87417 17.7349 3.37981 17.9789 3.9714C18.223 4.56299 18.2868 5.21397 18.1624 5.842C18.0379 6.47002 17.7308 7.04689 17.2799 7.49967C16.8289 7.95243 16.2544 8.26076 15.6289 8.38565C15.0034 8.51057 14.3551 8.44641 13.766 8.20135C13.1768 7.95628 12.6732 7.54129 12.3189 7.00885C11.9647 6.47642 11.7756 5.85046 11.7756 5.21012C11.7766 4.3518 12.1167 3.52892 12.7211 2.92201C13.3256 2.3151 14.1452 1.97372 15 1.97278Z" fill="url(#paint1_linear)"/>
<defs>
<linearGradient id="paint0_linear" x1="0" y1="24.0128" x2="30" y2="24.0128" gradientUnits="userSpaceOnUse">
<stop stop-color="#EC441E"/>
<stop offset="1" stop-color="#EE2A4A"/>
</linearGradient>
<linearGradient id="paint1_linear" x1="9.81316" y1="12.1487" x2="20.1868" y2="12.1487" gradientUnits="userSpaceOnUse">
<stop stop-color="#EC441E"/>
<stop offset="1" stop-color="#EE2A4A"/>
</linearGradient>
</defs>
</svg>
