<svg width="32" height="32" viewBox="0 0 32 32" fill="none" xmlns="http://www.w3.org/2000/svg">
<path d="M11.1792 3.3056L10.0336 3.6512C9.01182 3.95899 8.09926 4.55231 7.40336 5.36131C6.70746 6.17031 6.2572 7.1613 6.10559 8.2176C5.63039 11.5264 6.69279 15.3952 9.25439 19.832C11.8096 24.2576 14.6224 27.1088 17.7184 28.3568C18.7132 28.7577 19.8021 28.8645 20.8558 28.6646C21.9095 28.4646 22.8837 27.9663 23.6624 27.2288L24.5312 26.4064C25.0941 25.8732 25.4442 25.1539 25.5166 24.382C25.589 23.6101 25.3787 22.8381 24.9248 22.2096L22.7552 19.2016C22.4619 18.7955 22.0488 18.4914 21.574 18.3319C21.0991 18.1723 20.5862 18.1654 20.1072 18.312L16.8256 19.3152L16.7408 19.3312C16.3792 19.384 15.5456 18.6016 14.5056 16.8C13.4176 14.9152 13.1904 13.8128 13.4912 13.528L15.1616 11.9712C15.7716 11.4021 16.1881 10.6564 16.3529 9.83864C16.5176 9.02085 16.4221 8.17202 16.08 7.4112L15.024 5.0576C14.7054 4.34865 14.1397 3.77987 13.4325 3.45747C12.7253 3.13507 11.9249 3.08109 11.1808 3.3056H11.1792ZM13.5632 5.7136L14.6208 8.0672C14.8264 8.52357 14.884 9.03291 14.7852 9.52364C14.6865 10.0144 14.4365 10.4619 14.0704 10.8032L12.3968 12.3616C11.3248 13.3744 11.68 15.1072 13.1184 17.6C14.4736 19.9456 15.7088 21.104 17.0352 20.9024L17.2336 20.8608L20.5744 19.8416C20.7341 19.7925 20.9051 19.7947 21.0635 19.8478C21.2219 19.9009 21.3597 20.0022 21.4576 20.1376L23.6272 23.1456C23.8544 23.4599 23.9597 23.8461 23.9235 24.2322C23.8873 24.6183 23.712 24.9782 23.4304 25.2448L22.5616 26.0672C22.0053 26.5936 21.3097 26.9493 20.5572 27.092C19.8047 27.2346 19.0271 27.1583 18.3168 26.872C15.6 25.7776 13.032 23.1744 10.64 19.032C8.24319 14.88 7.27359 11.3488 7.68959 8.4448C7.79781 7.69009 8.11948 6.98204 8.61668 6.40404C9.11389 5.82605 9.76593 5.40219 10.496 5.1824L11.6432 4.8368C12.0151 4.72504 12.415 4.75237 12.7683 4.91369C13.1215 5.07502 13.4041 5.35933 13.5632 5.7136Z" fill="url(#paint0_linear)"/>
<defs>
<linearGradient id="paint0_linear" x1="5.9953" y1="3.16919" x2="26.398" y2="3.88045" gradientUnits="userSpaceOnUse">
<stop stop-color="#EC441E"/>
<stop offset="1" stop-color="#E41414"/>
</linearGradient>
</defs>
</svg>
